<svg width="556" height="371" viewBox="0 0 556 371" fill="none" xmlns="http://www.w3.org/2000/svg">
<rect width="556" height="371" rx="16" fill="#394496"/>
<rect x="20" y="87" width="494" height="292" rx="16" fill="white"/>
<rect x="289" y="165" width="12" height="12" rx="4" fill="#5654D4"/>
<path d="M313.88 164.454V165.786H308.426V170.016H312.854V171.348H308.426V177H306.788V164.454H313.88ZM316.705 165.534C316.393 165.534 316.129 165.426 315.913 165.21C315.697 164.994 315.589 164.73 315.589 164.418C315.589 164.106 315.697 163.842 315.913 163.626C316.129 163.41 316.393 163.302 316.705 163.302C317.005 163.302 317.257 163.41 317.461 163.626C317.677 163.842 317.785 164.106 317.785 164.418C317.785 164.73 317.677 164.994 317.461 165.21C317.257 165.426 317.005 165.534 316.705 165.534ZM317.497 167.136V177H315.859V167.136H317.497ZM321.926 168.738C322.214 168.174 322.622 167.736 323.15 167.424C323.69 167.112 324.344 166.956 325.112 166.956V168.648H324.68C322.844 168.648 321.926 169.644 321.926 171.636V177H320.288V167.136H321.926V168.738ZM336.003 171.69C336.003 172.002 335.985 172.332 335.949 172.68H328.065C328.125 173.652 328.455 174.414 329.055 174.966C329.667 175.506 330.405 175.776 331.269 175.776C331.977 175.776 332.565 175.614 333.033 175.29C333.513 174.954 333.849 174.51 334.041 173.958H335.805C335.541 174.906 335.013 175.68 334.221 176.28C333.429 176.868 332.445 177.162 331.269 177.162C330.333 177.162 329.493 176.952 328.749 176.532C328.017 176.112 327.441 175.518 327.021 174.75C326.601 173.97 326.391 173.07 326.391 172.05C326.391 171.03 326.595 170.136 327.003 169.368C327.411 168.6 327.981 168.012 328.713 167.604C329.457 167.184 330.309 166.974 331.269 166.974C332.205 166.974 333.033 167.178 333.753 167.586C334.473 167.994 335.025 168.558 335.409 169.278C335.805 169.986 336.003 170.79 336.003 171.69ZM334.311 171.348C334.311 170.724 334.173 170.19 333.897 169.746C333.621 169.29 333.243 168.948 332.763 168.72C332.295 168.48 331.773 168.36 331.197 168.36C330.369 168.36 329.661 168.624 329.073 169.152C328.497 169.68 328.167 170.412 328.083 171.348H334.311ZM352.594 177L350.956 175.344C350.344 175.98 349.69 176.454 348.994 176.766C348.298 177.066 347.512 177.216 346.636 177.216C345.772 177.216 345.004 177.06 344.332 176.748C343.672 176.436 343.156 175.992 342.784 175.416C342.424 174.84 342.244 174.168 342.244 173.4C342.244 172.524 342.49 171.756 342.982 171.096C343.486 170.424 344.224 169.896 345.196 169.512C344.812 169.056 344.536 168.636 344.368 168.252C344.2 167.868 344.116 167.448 344.116 166.992C344.116 166.464 344.248 165.99 344.512 165.57C344.788 165.138 345.178 164.802 345.682 164.562C346.186 164.322 346.768 164.202 347.428 164.202C348.076 164.202 348.64 164.328 349.12 164.58C349.6 164.832 349.96 165.186 350.2 165.642C350.44 166.086 350.548 166.584 350.524 167.136H348.886C348.898 166.644 348.76 166.26 348.472 165.984C348.184 165.696 347.812 165.552 347.356 165.552C346.876 165.552 346.486 165.69 346.186 165.966C345.898 166.23 345.754 166.572 345.754 166.992C345.754 167.352 345.85 167.7 346.042 168.036C346.246 168.372 346.582 168.786 347.05 169.278L350.794 173.04L351.118 172.536L352.342 170.484H354.106L352.63 173.04C352.426 173.4 352.186 173.778 351.91 174.174L354.736 177H352.594ZM346.636 175.812C347.284 175.812 347.866 175.686 348.382 175.434C348.91 175.182 349.408 174.792 349.876 174.264L346.186 170.556C344.65 171.144 343.882 172.074 343.882 173.346C343.882 174.054 344.134 174.642 344.638 175.11C345.154 175.578 345.82 175.812 346.636 175.812ZM360.458 170.718C360.458 169.494 360.734 168.396 361.286 167.424C361.838 166.44 362.588 165.672 363.536 165.12C364.496 164.568 365.558 164.292 366.722 164.292C368.09 164.292 369.284 164.622 370.304 165.282C371.324 165.942 372.068 166.878 372.536 168.09H370.574C370.226 167.334 369.722 166.752 369.062 166.344C368.414 165.936 367.634 165.732 366.722 165.732C365.846 165.732 365.06 165.936 364.364 166.344C363.668 166.752 363.122 167.334 362.726 168.09C362.33 168.834 362.132 169.71 362.132 170.718C362.132 171.714 362.33 172.59 362.726 173.346C363.122 174.09 363.668 174.666 364.364 175.074C365.06 175.482 365.846 175.686 366.722 175.686C367.634 175.686 368.414 175.488 369.062 175.092C369.722 174.684 370.226 174.102 370.574 173.346H372.536C372.068 174.546 371.324 175.476 370.304 176.136C369.284 176.784 368.09 177.108 366.722 177.108C365.558 177.108 364.496 176.838 363.536 176.298C362.588 175.746 361.838 174.984 361.286 174.012C360.734 173.04 360.458 171.942 360.458 170.718ZM374.362 172.032C374.362 171.024 374.566 170.142 374.974 169.386C375.382 168.618 375.94 168.024 376.648 167.604C377.368 167.184 378.166 166.974 379.042 166.974C379.906 166.974 380.656 167.16 381.292 167.532C381.928 167.904 382.402 168.372 382.714 168.936V167.136H384.37V177H382.714V175.164C382.39 175.74 381.904 176.22 381.256 176.604C380.62 176.976 379.876 177.162 379.024 177.162C378.148 177.162 377.356 176.946 376.648 176.514C375.94 176.082 375.382 175.476 374.974 174.696C374.566 173.916 374.362 173.028 374.362 172.032ZM382.714 172.05C382.714 171.306 382.564 170.658 382.264 170.106C381.964 169.554 381.556 169.134 381.04 168.846C380.536 168.546 379.978 168.396 379.366 168.396C378.754 168.396 378.196 168.54 377.692 168.828C377.188 169.116 376.786 169.536 376.486 170.088C376.186 170.64 376.036 171.288 376.036 172.032C376.036 172.788 376.186 173.448 376.486 174.012C376.786 174.564 377.188 174.99 377.692 175.29C378.196 175.578 378.754 175.722 379.366 175.722C379.978 175.722 380.536 175.578 381.04 175.29C381.556 174.99 381.964 174.564 382.264 174.012C382.564 173.448 382.714 172.794 382.714 172.05ZM389.136 168.486V174.3C389.136 174.78 389.238 175.122 389.442 175.326C389.646 175.518 390 175.614 390.504 175.614H391.71V177H390.234C389.322 177 388.638 176.79 388.182 176.37C387.726 175.95 387.498 175.26 387.498 174.3V168.486H386.22V167.136H387.498V164.652H389.136V167.136H391.71V168.486H389.136ZM400.535 169.71V171.096H393.353V169.71H400.535ZM413.473 177H411.835L405.247 167.01V177H403.609V164.436H405.247L411.835 174.408V164.436H413.473V177ZM425.265 171.69C425.265 172.002 425.247 172.332 425.211 172.68H417.327C417.387 173.652 417.717 174.414 418.317 174.966C418.929 175.506 419.667 175.776 420.531 175.776C421.239 175.776 421.827 175.614 422.295 175.29C422.775 174.954 423.111 174.51 423.303 173.958H425.067C424.803 174.906 424.275 175.68 423.483 176.28C422.691 176.868 421.707 177.162 420.531 177.162C419.595 177.162 418.755 176.952 418.011 176.532C417.279 176.112 416.703 175.518 416.283 174.75C415.863 173.97 415.653 173.07 415.653 172.05C415.653 171.03 415.857 170.136 416.265 169.368C416.673 168.6 417.243 168.012 417.975 167.604C418.719 167.184 419.571 166.974 420.531 166.974C421.467 166.974 422.295 167.178 423.015 167.586C423.735 167.994 424.287 168.558 424.671 169.278C425.067 169.986 425.265 170.79 425.265 171.69ZM423.573 171.348C423.573 170.724 423.435 170.19 423.159 169.746C422.883 169.29 422.505 168.948 422.025 168.72C421.557 168.48 421.035 168.36 420.459 168.36C419.631 168.36 418.923 168.624 418.335 169.152C417.759 169.68 417.429 170.412 417.345 171.348H423.573ZM429.425 168.486V174.3C429.425 174.78 429.527 175.122 429.731 175.326C429.935 175.518 430.289 175.614 430.793 175.614H431.999V177H430.523C429.611 177 428.927 176.79 428.471 176.37C428.015 175.95 427.787 175.26 427.787 174.3V168.486H426.509V167.136H427.787V164.652H429.425V167.136H431.999V168.486H429.425Z" fill="#080808"/>
<rect x="289" y="199" width="12" height="12" rx="4" fill="#1DBF73"/>
<path d="M314.297 208.21H308.825L307.817 211H306.089L310.625 198.526H312.515L317.033 211H315.305L314.297 208.21ZM313.829 206.878L311.561 200.542L309.293 206.878H313.829ZM327.758 201.136V211H326.12V209.542C325.808 210.046 325.37 210.442 324.806 210.73C324.254 211.006 323.642 211.144 322.97 211.144C322.202 211.144 321.512 210.988 320.9 210.676C320.288 210.352 319.802 209.872 319.442 209.236C319.094 208.6 318.92 207.826 318.92 206.914V201.136H320.54V206.698C320.54 207.67 320.786 208.42 321.278 208.948C321.77 209.464 322.442 209.722 323.294 209.722C324.17 209.722 324.86 209.452 325.364 208.912C325.868 208.372 326.12 207.586 326.12 206.554V201.136H327.758ZM332.522 202.486V208.3C332.522 208.78 332.624 209.122 332.828 209.326C333.032 209.518 333.386 209.614 333.89 209.614H335.096V211H333.62C332.708 211 332.024 210.79 331.568 210.37C331.112 209.95 330.884 209.26 330.884 208.3V202.486H329.606V201.136H330.884V198.652H332.522V201.136H335.096V202.486H332.522ZM341.382 211.162C340.458 211.162 339.618 210.952 338.862 210.532C338.118 210.112 337.53 209.518 337.098 208.75C336.678 207.97 336.468 207.07 336.468 206.05C336.468 205.042 336.684 204.154 337.116 203.386C337.56 202.606 338.16 202.012 338.916 201.604C339.672 201.184 340.518 200.974 341.454 200.974C342.39 200.974 343.236 201.184 343.992 201.604C344.748 202.012 345.342 202.6 345.774 203.368C346.218 204.136 346.44 205.03 346.44 206.05C346.44 207.07 346.212 207.97 345.756 208.75C345.312 209.518 344.706 210.112 343.938 210.532C343.17 210.952 342.318 211.162 341.382 211.162ZM341.382 209.722C341.97 209.722 342.522 209.584 343.038 209.308C343.554 209.032 343.968 208.618 344.28 208.066C344.604 207.514 344.766 206.842 344.766 206.05C344.766 205.258 344.61 204.586 344.298 204.034C343.986 203.482 343.578 203.074 343.074 202.81C342.57 202.534 342.024 202.396 341.436 202.396C340.836 202.396 340.284 202.534 339.78 202.81C339.288 203.074 338.892 203.482 338.592 204.034C338.292 204.586 338.142 205.258 338.142 206.05C338.142 206.854 338.286 207.532 338.574 208.084C338.874 208.636 339.27 209.05 339.762 209.326C340.254 209.59 340.794 209.722 341.382 209.722ZM360.456 200.956C361.224 200.956 361.908 201.118 362.508 201.442C363.108 201.754 363.582 202.228 363.93 202.864C364.278 203.5 364.452 204.274 364.452 205.186V211H362.832V205.42C362.832 204.436 362.586 203.686 362.094 203.17C361.614 202.642 360.96 202.378 360.132 202.378C359.28 202.378 358.602 202.654 358.098 203.206C357.594 203.746 357.342 204.532 357.342 205.564V211H355.722V205.42C355.722 204.436 355.476 203.686 354.984 203.17C354.504 202.642 353.85 202.378 353.022 202.378C352.17 202.378 351.492 202.654 350.988 203.206C350.484 203.746 350.232 204.532 350.232 205.564V211H348.594V201.136H350.232V202.558C350.556 202.042 350.988 201.646 351.528 201.37C352.08 201.094 352.686 200.956 353.346 200.956C354.174 200.956 354.906 201.142 355.542 201.514C356.178 201.886 356.652 202.432 356.964 203.152C357.24 202.456 357.696 201.916 358.332 201.532C358.968 201.148 359.676 200.956 360.456 200.956ZM371.441 211.162C370.517 211.162 369.677 210.952 368.921 210.532C368.177 210.112 367.589 209.518 367.157 208.75C366.737 207.97 366.527 207.07 366.527 206.05C366.527 205.042 366.743 204.154 367.175 203.386C367.619 202.606 368.219 202.012 368.975 201.604C369.731 201.184 370.577 200.974 371.513 200.974C372.449 200.974 373.295 201.184 374.051 201.604C374.807 202.012 375.401 202.6 375.833 203.368C376.277 204.136 376.499 205.03 376.499 206.05C376.499 207.07 376.271 207.97 375.815 208.75C375.371 209.518 374.765 210.112 373.997 210.532C373.229 210.952 372.377 211.162 371.441 211.162ZM371.441 209.722C372.029 209.722 372.581 209.584 373.097 209.308C373.613 209.032 374.027 208.618 374.339 208.066C374.663 207.514 374.825 206.842 374.825 206.05C374.825 205.258 374.669 204.586 374.357 204.034C374.045 203.482 373.637 203.074 373.133 202.81C372.629 202.534 372.083 202.396 371.495 202.396C370.895 202.396 370.343 202.534 369.839 202.81C369.347 203.074 368.951 203.482 368.651 204.034C368.351 204.586 368.201 205.258 368.201 206.05C368.201 206.854 368.345 207.532 368.633 208.084C368.933 208.636 369.329 209.05 369.821 209.326C370.313 209.59 370.853 209.722 371.441 209.722ZM380.651 202.486V208.3C380.651 208.78 380.753 209.122 380.957 209.326C381.161 209.518 381.515 209.614 382.019 209.614H383.225V211H381.749C380.837 211 380.153 210.79 379.697 210.37C379.241 209.95 379.013 209.26 379.013 208.3V202.486H377.735V201.136H379.013V198.652H380.651V201.136H383.225V202.486H380.651ZM386.055 199.534C385.743 199.534 385.479 199.426 385.263 199.21C385.047 198.994 384.939 198.73 384.939 198.418C384.939 198.106 385.047 197.842 385.263 197.626C385.479 197.41 385.743 197.302 386.055 197.302C386.355 197.302 386.607 197.41 386.811 197.626C387.027 197.842 387.135 198.106 387.135 198.418C387.135 198.73 387.027 198.994 386.811 199.21C386.607 199.426 386.355 199.534 386.055 199.534ZM386.847 201.136V211H385.209V201.136H386.847ZM393.311 209.488L396.371 201.136H398.117L394.247 211H392.339L388.469 201.136H390.233L393.311 209.488ZM408.729 205.69C408.729 206.002 408.711 206.332 408.675 206.68H400.791C400.851 207.652 401.181 208.414 401.781 208.966C402.393 209.506 403.131 209.776 403.995 209.776C404.703 209.776 405.291 209.614 405.759 209.29C406.239 208.954 406.575 208.51 406.767 207.958H408.531C408.267 208.906 407.739 209.68 406.947 210.28C406.155 210.868 405.171 211.162 403.995 211.162C403.059 211.162 402.219 210.952 401.475 210.532C400.743 210.112 400.167 209.518 399.747 208.75C399.327 207.97 399.117 207.07 399.117 206.05C399.117 205.03 399.321 204.136 399.729 203.368C400.137 202.6 400.707 202.012 401.439 201.604C402.183 201.184 403.035 200.974 403.995 200.974C404.931 200.974 405.759 201.178 406.479 201.586C407.199 201.994 407.751 202.558 408.135 203.278C408.531 203.986 408.729 204.79 408.729 205.69ZM407.037 205.348C407.037 204.724 406.899 204.19 406.623 203.746C406.347 203.29 405.969 202.948 405.489 202.72C405.021 202.48 404.499 202.36 403.923 202.36C403.095 202.36 402.387 202.624 401.799 203.152C401.223 203.68 400.893 204.412 400.809 205.348H407.037Z" fill="#080808"/>
<rect x="289" y="233" width="12" height="12" rx="4" fill="#FF9F0A"/>
<path d="M308.026 233.786V237.98H312.598V239.33H308.026V243.65H313.138V245H306.388V232.436H313.138V233.786H308.026ZM320.422 234.956C321.622 234.956 322.594 235.322 323.338 236.054C324.082 236.774 324.454 237.818 324.454 239.186V245H322.834V239.42C322.834 238.436 322.588 237.686 322.096 237.17C321.604 236.642 320.932 236.378 320.08 236.378C319.216 236.378 318.526 236.648 318.01 237.188C317.506 237.728 317.254 238.514 317.254 239.546V245H315.616V235.136H317.254V236.54C317.578 236.036 318.016 235.646 318.568 235.37C319.132 235.094 319.75 234.956 320.422 234.956ZM331.198 234.974C332.05 234.974 332.794 235.16 333.43 235.532C334.078 235.904 334.558 236.372 334.87 236.936V235.136H336.526V245.216C336.526 246.116 336.334 246.914 335.95 247.61C335.566 248.318 335.014 248.87 334.294 249.266C333.586 249.662 332.758 249.86 331.81 249.86C330.514 249.86 329.434 249.554 328.57 248.942C327.706 248.33 327.196 247.496 327.04 246.44H328.66C328.84 247.04 329.212 247.52 329.776 247.88C330.34 248.252 331.018 248.438 331.81 248.438C332.71 248.438 333.442 248.156 334.006 247.592C334.582 247.028 334.87 246.236 334.87 245.216V243.146C334.546 243.722 334.066 244.202 333.43 244.586C332.794 244.97 332.05 245.162 331.198 245.162C330.322 245.162 329.524 244.946 328.804 244.514C328.096 244.082 327.538 243.476 327.13 242.696C326.722 241.916 326.518 241.028 326.518 240.032C326.518 239.024 326.722 238.142 327.13 237.386C327.538 236.618 328.096 236.024 328.804 235.604C329.524 235.184 330.322 234.974 331.198 234.974ZM334.87 240.05C334.87 239.306 334.72 238.658 334.42 238.106C334.12 237.554 333.712 237.134 333.196 236.846C332.692 236.546 332.134 236.396 331.522 236.396C330.91 236.396 330.352 236.54 329.848 236.828C329.344 237.116 328.942 237.536 328.642 238.088C328.342 238.64 328.192 239.288 328.192 240.032C328.192 240.788 328.342 241.448 328.642 242.012C328.942 242.564 329.344 242.99 329.848 243.29C330.352 243.578 330.91 243.722 331.522 243.722C332.134 243.722 332.692 243.578 333.196 243.29C333.712 242.99 334.12 242.564 334.42 242.012C334.72 241.448 334.87 240.794 334.87 240.05ZM340.14 233.534C339.828 233.534 339.564 233.426 339.348 233.21C339.132 232.994 339.024 232.73 339.024 232.418C339.024 232.106 339.132 231.842 339.348 231.626C339.564 231.41 339.828 231.302 340.14 231.302C340.44 231.302 340.692 231.41 340.896 231.626C341.112 231.842 341.22 232.106 341.22 232.418C341.22 232.73 341.112 232.994 340.896 233.21C340.692 233.426 340.44 233.534 340.14 233.534ZM340.932 235.136V245H339.294V235.136H340.932ZM348.53 234.956C349.73 234.956 350.702 235.322 351.446 236.054C352.19 236.774 352.562 237.818 352.562 239.186V245H350.942V239.42C350.942 238.436 350.696 237.686 350.204 237.17C349.712 236.642 349.04 236.378 348.188 236.378C347.324 236.378 346.634 236.648 346.118 237.188C345.614 237.728 345.362 238.514 345.362 239.546V245H343.724V235.136H345.362V236.54C345.686 236.036 346.124 235.646 346.676 235.37C347.24 235.094 347.858 234.956 348.53 234.956ZM364.238 239.69C364.238 240.002 364.22 240.332 364.184 240.68H356.3C356.36 241.652 356.69 242.414 357.29 242.966C357.902 243.506 358.64 243.776 359.504 243.776C360.212 243.776 360.8 243.614 361.268 243.29C361.748 242.954 362.084 242.51 362.276 241.958H364.04C363.776 242.906 363.248 243.68 362.456 244.28C361.664 244.868 360.68 245.162 359.504 245.162C358.568 245.162 357.728 244.952 356.984 244.532C356.252 244.112 355.676 243.518 355.256 242.75C354.836 241.97 354.626 241.07 354.626 240.05C354.626 239.03 354.83 238.136 355.238 237.368C355.646 236.6 356.216 236.012 356.948 235.604C357.692 235.184 358.544 234.974 359.504 234.974C360.44 234.974 361.268 235.178 361.988 235.586C362.708 235.994 363.26 236.558 363.644 237.278C364.04 237.986 364.238 238.79 364.238 239.69ZM362.546 239.348C362.546 238.724 362.408 238.19 362.132 237.746C361.856 237.29 361.478 236.948 360.998 236.72C360.53 236.48 360.008 236.36 359.432 236.36C358.604 236.36 357.896 236.624 357.308 237.152C356.732 237.68 356.402 238.412 356.318 239.348H362.546ZM375.4 239.69C375.4 240.002 375.382 240.332 375.346 240.68H367.462C367.522 241.652 367.852 242.414 368.452 242.966C369.064 243.506 369.802 243.776 370.666 243.776C371.374 243.776 371.962 243.614 372.43 243.29C372.91 242.954 373.246 242.51 373.438 241.958H375.202C374.938 242.906 374.41 243.68 373.618 244.28C372.826 244.868 371.842 245.162 370.666 245.162C369.73 245.162 368.89 244.952 368.146 244.532C367.414 244.112 366.838 243.518 366.418 242.75C365.998 241.97 365.788 241.07 365.788 240.05C365.788 239.03 365.992 238.136 366.4 237.368C366.808 236.6 367.378 236.012 368.11 235.604C368.854 235.184 369.706 234.974 370.666 234.974C371.602 234.974 372.43 235.178 373.15 235.586C373.87 235.994 374.422 236.558 374.806 237.278C375.202 237.986 375.4 238.79 375.4 239.69ZM373.708 239.348C373.708 238.724 373.57 238.19 373.294 237.746C373.018 237.29 372.64 236.948 372.16 236.72C371.692 236.48 371.17 236.36 370.594 236.36C369.766 236.36 369.058 236.624 368.47 237.152C367.894 237.68 367.564 238.412 367.48 239.348H373.708ZM379.2 236.738C379.488 236.174 379.896 235.736 380.424 235.424C380.964 235.112 381.618 234.956 382.386 234.956V236.648H381.954C380.118 236.648 379.2 237.644 379.2 239.636V245H377.562V235.136H379.2V236.738ZM385.123 233.534C384.811 233.534 384.547 233.426 384.331 233.21C384.115 232.994 384.007 232.73 384.007 232.418C384.007 232.106 384.115 231.842 384.331 231.626C384.547 231.41 384.811 231.302 385.123 231.302C385.423 231.302 385.675 231.41 385.879 231.626C386.095 231.842 386.203 232.106 386.203 232.418C386.203 232.73 386.095 232.994 385.879 233.21C385.675 233.426 385.423 233.534 385.123 233.534ZM385.915 235.136V245H384.277V235.136H385.915ZM393.512 234.956C394.712 234.956 395.684 235.322 396.428 236.054C397.172 236.774 397.544 237.818 397.544 239.186V245H395.924V239.42C395.924 238.436 395.678 237.686 395.186 237.17C394.694 236.642 394.022 236.378 393.17 236.378C392.306 236.378 391.616 236.648 391.1 237.188C390.596 237.728 390.344 238.514 390.344 239.546V245H388.706V235.136H390.344V236.54C390.668 236.036 391.106 235.646 391.658 235.37C392.222 235.094 392.84 234.956 393.512 234.956ZM404.288 234.974C405.14 234.974 405.884 235.16 406.52 235.532C407.168 235.904 407.648 236.372 407.96 236.936V235.136H409.616V245.216C409.616 246.116 409.424 246.914 409.04 247.61C408.656 248.318 408.104 248.87 407.384 249.266C406.676 249.662 405.848 249.86 404.9 249.86C403.604 249.86 402.524 249.554 401.66 248.942C400.796 248.33 400.286 247.496 400.13 246.44H401.75C401.93 247.04 402.302 247.52 402.866 247.88C403.43 248.252 404.108 248.438 404.9 248.438C405.8 248.438 406.532 248.156 407.096 247.592C407.672 247.028 407.96 246.236 407.96 245.216V243.146C407.636 243.722 407.156 244.202 406.52 244.586C405.884 244.97 405.14 245.162 404.288 245.162C403.412 245.162 402.614 244.946 401.894 244.514C401.186 244.082 400.628 243.476 400.22 242.696C399.812 241.916 399.608 241.028 399.608 240.032C399.608 239.024 399.812 238.142 400.22 237.386C400.628 236.618 401.186 236.024 401.894 235.604C402.614 235.184 403.412 234.974 404.288 234.974ZM407.96 240.05C407.96 239.306 407.81 238.658 407.51 238.106C407.21 237.554 406.802 237.134 406.286 236.846C405.782 236.546 405.224 236.396 404.612 236.396C404 236.396 403.442 236.54 402.938 236.828C402.434 237.116 402.032 237.536 401.732 238.088C401.432 238.64 401.282 239.288 401.282 240.032C401.282 240.788 401.432 241.448 401.732 242.012C402.032 242.564 402.434 242.99 402.938 243.29C403.442 243.578 404 243.722 404.612 243.722C405.224 243.722 405.782 243.578 406.286 243.29C406.802 242.99 407.21 242.564 407.51 242.012C407.81 241.448 407.96 240.794 407.96 240.05Z" fill="#080808"/>
<rect x="289" y="267" width="12" height="12" rx="4" fill="#3FC8E4"/>
<path d="M314.366 266.454V267.786H310.946V279H309.308V267.786H305.87V266.454H314.366ZM318.02 270.738C318.308 270.174 318.716 269.736 319.244 269.424C319.784 269.112 320.438 268.956 321.206 268.956V270.648H320.774C318.938 270.648 318.02 271.644 318.02 273.636V279H316.382V269.136H318.02V270.738ZM322.485 274.032C322.485 273.024 322.689 272.142 323.097 271.386C323.505 270.618 324.063 270.024 324.771 269.604C325.491 269.184 326.289 268.974 327.165 268.974C328.029 268.974 328.779 269.16 329.415 269.532C330.051 269.904 330.525 270.372 330.837 270.936V269.136H332.493V279H330.837V277.164C330.513 277.74 330.027 278.22 329.379 278.604C328.743 278.976 327.999 279.162 327.147 279.162C326.271 279.162 325.479 278.946 324.771 278.514C324.063 278.082 323.505 277.476 323.097 276.696C322.689 275.916 322.485 275.028 322.485 274.032ZM330.837 274.05C330.837 273.306 330.687 272.658 330.387 272.106C330.087 271.554 329.679 271.134 329.163 270.846C328.659 270.546 328.101 270.396 327.489 270.396C326.877 270.396 326.319 270.54 325.815 270.828C325.311 271.116 324.909 271.536 324.609 272.088C324.309 272.64 324.159 273.288 324.159 274.032C324.159 274.788 324.309 275.448 324.609 276.012C324.909 276.564 325.311 276.99 325.815 277.29C326.319 277.578 326.877 277.722 327.489 277.722C328.101 277.722 328.659 277.578 329.163 277.29C329.679 276.99 330.087 276.564 330.387 276.012C330.687 275.448 330.837 274.794 330.837 274.05ZM340.067 268.956C341.267 268.956 342.239 269.322 342.983 270.054C343.727 270.774 344.099 271.818 344.099 273.186V279H342.479V273.42C342.479 272.436 342.233 271.686 341.741 271.17C341.249 270.642 340.577 270.378 339.725 270.378C338.861 270.378 338.171 270.648 337.655 271.188C337.151 271.728 336.899 272.514 336.899 273.546V279H335.261V269.136H336.899V270.54C337.223 270.036 337.661 269.646 338.213 269.37C338.777 269.094 339.395 268.956 340.067 268.956ZM350.267 279.162C349.511 279.162 348.833 279.036 348.233 278.784C347.633 278.52 347.159 278.16 346.811 277.704C346.463 277.236 346.271 276.702 346.235 276.102H347.927C347.975 276.594 348.203 276.996 348.611 277.308C349.031 277.62 349.577 277.776 350.249 277.776C350.873 277.776 351.365 277.638 351.725 277.362C352.085 277.086 352.265 276.738 352.265 276.318C352.265 275.886 352.073 275.568 351.689 275.364C351.305 275.148 350.711 274.938 349.907 274.734C349.175 274.542 348.575 274.35 348.107 274.158C347.651 273.954 347.255 273.66 346.919 273.276C346.595 272.88 346.433 272.364 346.433 271.728C346.433 271.224 346.583 270.762 346.883 270.342C347.183 269.922 347.609 269.592 348.161 269.352C348.713 269.1 349.343 268.974 350.051 268.974C351.143 268.974 352.025 269.25 352.697 269.802C353.369 270.354 353.729 271.11 353.777 272.07H352.139C352.103 271.554 351.893 271.14 351.509 270.828C351.137 270.516 350.633 270.36 349.997 270.36C349.409 270.36 348.941 270.486 348.593 270.738C348.245 270.99 348.071 271.32 348.071 271.728C348.071 272.052 348.173 272.322 348.377 272.538C348.593 272.742 348.857 272.91 349.169 273.042C349.493 273.162 349.937 273.3 350.501 273.456C351.209 273.648 351.785 273.84 352.229 274.032C352.673 274.212 353.051 274.488 353.363 274.86C353.687 275.232 353.855 275.718 353.867 276.318C353.867 276.858 353.717 277.344 353.417 277.776C353.117 278.208 352.691 278.55 352.139 278.802C351.599 279.042 350.975 279.162 350.267 279.162ZM357.817 270.954C358.141 270.39 358.621 269.922 359.257 269.55C359.905 269.166 360.655 268.974 361.507 268.974C362.383 268.974 363.175 269.184 363.883 269.604C364.603 270.024 365.167 270.618 365.575 271.386C365.983 272.142 366.187 273.024 366.187 274.032C366.187 275.028 365.983 275.916 365.575 276.696C365.167 277.476 364.603 278.082 363.883 278.514C363.175 278.946 362.383 279.162 361.507 279.162C360.667 279.162 359.923 278.976 359.275 278.604C358.639 278.22 358.153 277.746 357.817 277.182V283.68H356.179V269.136H357.817V270.954ZM364.513 274.032C364.513 273.288 364.363 272.64 364.063 272.088C363.763 271.536 363.355 271.116 362.839 270.828C362.335 270.54 361.777 270.396 361.165 270.396C360.565 270.396 360.007 270.546 359.491 270.846C358.987 271.134 358.579 271.56 358.267 272.124C357.967 272.676 357.817 273.318 357.817 274.05C357.817 274.794 357.967 275.448 358.267 276.012C358.579 276.564 358.987 276.99 359.491 277.29C360.007 277.578 360.565 277.722 361.165 277.722C361.777 277.722 362.335 277.578 362.839 277.29C363.355 276.99 363.763 276.564 364.063 276.012C364.363 275.448 364.513 274.788 364.513 274.032ZM372.645 279.162C371.721 279.162 370.881 278.952 370.125 278.532C369.381 278.112 368.793 277.518 368.361 276.75C367.941 275.97 367.731 275.07 367.731 274.05C367.731 273.042 367.947 272.154 368.379 271.386C368.823 270.606 369.423 270.012 370.179 269.604C370.935 269.184 371.781 268.974 372.717 268.974C373.653 268.974 374.499 269.184 375.255 269.604C376.011 270.012 376.605 270.6 377.037 271.368C377.481 272.136 377.703 273.03 377.703 274.05C377.703 275.07 377.475 275.97 377.019 276.75C376.575 277.518 375.969 278.112 375.201 278.532C374.433 278.952 373.581 279.162 372.645 279.162ZM372.645 277.722C373.233 277.722 373.785 277.584 374.301 277.308C374.817 277.032 375.231 276.618 375.543 276.066C375.867 275.514 376.029 274.842 376.029 274.05C376.029 273.258 375.873 272.586 375.561 272.034C375.249 271.482 374.841 271.074 374.337 270.81C373.833 270.534 373.287 270.396 372.699 270.396C372.099 270.396 371.547 270.534 371.043 270.81C370.551 271.074 370.155 271.482 369.855 272.034C369.555 272.586 369.405 273.258 369.405 274.05C369.405 274.854 369.549 275.532 369.837 276.084C370.137 276.636 370.533 277.05 371.025 277.326C371.517 277.59 372.057 277.722 372.645 277.722ZM381.495 270.738C381.783 270.174 382.191 269.736 382.719 269.424C383.259 269.112 383.913 268.956 384.681 268.956V270.648H384.249C382.413 270.648 381.495 271.644 381.495 273.636V279H379.857V269.136H381.495V270.738ZM388.57 270.486V276.3C388.57 276.78 388.672 277.122 388.876 277.326C389.08 277.518 389.434 277.614 389.938 277.614H391.144V279H389.668C388.756 279 388.072 278.79 387.616 278.37C387.16 277.95 386.932 277.26 386.932 276.3V270.486H385.654V269.136H386.932V266.652H388.57V269.136H391.144V270.486H388.57Z" fill="#080808"/>
<path d="M121.838 121.819C121.311 120.198 122.196 118.453 123.83 117.968C133.159 115.197 142.791 113.57 152.514 113.125C154.216 113.048 155.625 114.405 155.659 116.109L156.366 151.415C156.401 153.118 155.046 154.521 153.345 154.622C147.701 154.957 142.109 155.901 136.667 157.438C135.027 157.901 133.287 157.02 132.76 155.4L121.838 121.819Z" fill="#FF9F0A"/>
<path d="M166.255 116.378C166.375 114.678 167.852 113.393 169.548 113.557C195.994 116.113 220.877 127.38 240.263 145.634C259.648 163.887 272.391 188.048 276.533 214.292C276.798 215.975 275.605 217.526 273.915 217.748L238.904 222.355C237.215 222.577 235.671 221.386 235.383 219.707C232.503 202.942 224.249 187.535 211.824 175.836C199.4 164.137 183.524 156.825 166.617 154.958C164.923 154.771 163.641 153.302 163.762 151.602L166.255 116.378Z" fill="#1DBF73"/>
<path d="M274.63 224.856C276.33 224.738 277.809 226.02 277.884 227.722C278.603 244.062 275.975 260.376 270.16 275.663C269.554 277.256 267.748 278.008 266.171 277.362L233.499 263.963C231.923 263.316 231.175 261.516 231.759 259.915C235.181 250.536 236.783 240.591 236.48 230.613C236.428 228.909 237.703 227.435 239.404 227.316L274.63 224.856Z" fill="#3FC8E4"/>
<path d="M264.454 281.337C266.006 282.042 266.696 283.873 265.952 285.406C257.796 302.207 245.823 316.886 230.975 328.261C215.309 340.262 196.925 348.214 177.452 351.413C157.979 354.612 138.018 352.959 119.336 346.601C100.654 340.242 83.8288 329.375 70.3503 314.961C56.8718 300.546 47.1561 283.031 42.0639 263.965C36.9717 244.899 36.6601 224.872 41.1567 205.657C45.6534 186.442 54.8194 168.632 67.843 153.806C80.1871 139.753 95.6357 128.791 112.946 121.779C114.525 121.139 116.306 121.951 116.905 123.546L129.318 156.607C129.917 158.202 129.106 159.975 127.536 160.637C116.609 165.237 106.853 172.257 99.0113 181.184C90.4902 190.885 84.493 202.538 81.5509 215.11C78.6088 227.682 78.8127 240.785 82.1444 253.26C85.4762 265.735 91.833 277.195 100.652 286.626C109.471 296.057 120.479 303.167 132.702 307.327C144.926 311.488 157.986 312.569 170.727 310.476C183.468 308.383 195.497 303.18 205.746 295.328C215.179 288.103 222.837 278.839 228.159 268.245C228.924 266.722 230.748 266.032 232.3 266.737L264.454 281.337Z" fill="#5654D4"/>
<path d="M132.666 212.718C132.666 211.494 132.948 210.396 133.512 209.424C134.088 208.452 134.862 207.696 135.834 207.156C136.818 206.604 137.892 206.328 139.056 206.328C140.388 206.328 141.57 206.658 142.602 207.318C143.646 207.966 144.402 208.89 144.87 210.09H142.404C142.08 209.43 141.63 208.938 141.054 208.614C140.478 208.29 139.812 208.128 139.056 208.128C138.228 208.128 137.49 208.314 136.842 208.686C136.194 209.058 135.684 209.592 135.312 210.288C134.952 210.984 134.772 211.794 134.772 212.718C134.772 213.642 134.952 214.452 135.312 215.148C135.684 215.844 136.194 216.384 136.842 216.768C137.49 217.14 138.228 217.326 139.056 217.326C139.812 217.326 140.478 217.164 141.054 216.84C141.63 216.516 142.08 216.024 142.404 215.364H144.87C144.402 216.564 143.646 217.488 142.602 218.136C141.57 218.784 140.388 219.108 139.056 219.108C137.88 219.108 136.806 218.838 135.834 218.298C134.862 217.746 134.088 216.984 133.512 216.012C132.948 215.04 132.666 213.942 132.666 212.718ZM149.324 205.68V219H147.272V205.68H149.324ZM153.062 207.768C152.69 207.768 152.378 207.642 152.126 207.39C151.874 207.138 151.748 206.826 151.748 206.454C151.748 206.082 151.874 205.77 152.126 205.518C152.378 205.266 152.69 205.14 153.062 205.14C153.422 205.14 153.728 205.266 153.98 205.518C154.232 205.77 154.358 206.082 154.358 206.454C154.358 206.826 154.232 207.138 153.98 207.39C153.728 207.642 153.422 207.768 153.062 207.768ZM154.07 209.082V219H152.018V209.082H154.07ZM165.854 213.798C165.854 214.17 165.83 214.506 165.782 214.806H158.204C158.264 215.598 158.558 216.234 159.086 216.714C159.614 217.194 160.262 217.434 161.03 217.434C162.134 217.434 162.914 216.972 163.37 216.048H165.584C165.284 216.96 164.738 217.71 163.946 218.298C163.166 218.874 162.194 219.162 161.03 219.162C160.082 219.162 159.23 218.952 158.474 218.532C157.73 218.1 157.142 217.5 156.71 216.732C156.29 215.952 156.08 215.052 156.08 214.032C156.08 213.012 156.284 212.118 156.692 211.35C157.112 210.57 157.694 209.97 158.438 209.55C159.194 209.13 160.058 208.92 161.03 208.92C161.966 208.92 162.8 209.124 163.532 209.532C164.264 209.94 164.834 210.516 165.242 211.26C165.65 211.992 165.854 212.838 165.854 213.798ZM163.712 213.15C163.7 212.394 163.43 211.788 162.902 211.332C162.374 210.876 161.72 210.648 160.94 210.648C160.232 210.648 159.626 210.876 159.122 211.332C158.618 211.776 158.318 212.382 158.222 213.15H163.712ZM172.877 208.92C173.657 208.92 174.353 209.082 174.965 209.406C175.589 209.73 176.075 210.21 176.423 210.846C176.771 211.482 176.945 212.25 176.945 213.15V219H174.911V213.456C174.911 212.568 174.689 211.89 174.245 211.422C173.801 210.942 173.195 210.702 172.427 210.702C171.659 210.702 171.047 210.942 170.591 211.422C170.147 211.89 169.925 212.568 169.925 213.456V219H167.873V209.082H169.925V210.216C170.261 209.808 170.687 209.49 171.203 209.262C171.731 209.034 172.289 208.92 172.877 208.92ZM181.957 210.756V216.246C181.957 216.618 182.041 216.888 182.209 217.056C182.389 217.212 182.689 217.29 183.109 217.29H184.369V219H182.749C181.825 219 181.117 218.784 180.625 218.352C180.133 217.92 179.887 217.218 179.887 216.246V210.756H178.717V209.082H179.887V206.616H181.957V209.082H184.369V210.756H181.957Z" fill="#888888"/>
<path d="M107.652 233.8V229.672H115.364V253H110.756V233.8H107.652ZM118.83 241.032C118.83 237.341 119.491 234.451 120.814 232.36C122.158 230.269 124.376 229.224 127.47 229.224C130.563 229.224 132.771 230.269 134.094 232.36C135.438 234.451 136.11 237.341 136.11 241.032C136.11 244.744 135.438 247.656 134.094 249.768C132.771 251.88 130.563 252.936 127.47 252.936C124.376 252.936 122.158 251.88 120.814 249.768C119.491 247.656 118.83 244.744 118.83 241.032ZM131.694 241.032C131.694 239.453 131.587 238.131 131.374 237.064C131.182 235.976 130.776 235.091 130.158 234.408C129.56 233.725 128.664 233.384 127.47 233.384C126.275 233.384 125.368 233.725 124.75 234.408C124.152 235.091 123.747 235.976 123.534 237.064C123.342 238.131 123.246 239.453 123.246 241.032C123.246 242.653 123.342 244.019 123.534 245.128C123.726 246.216 124.131 247.101 124.75 247.784C125.368 248.445 126.275 248.776 127.47 248.776C128.664 248.776 129.571 248.445 130.19 247.784C130.808 247.101 131.214 246.216 131.406 245.128C131.598 244.019 131.694 242.653 131.694 241.032ZM139.965 247.944C142.013 246.237 143.645 244.819 144.861 243.688C146.077 242.536 147.091 241.341 147.901 240.104C148.712 238.867 149.117 237.651 149.117 236.456C149.117 235.368 148.861 234.515 148.349 233.896C147.837 233.277 147.048 232.968 145.981 232.968C144.915 232.968 144.093 233.331 143.517 234.056C142.941 234.76 142.643 235.731 142.621 236.968H138.269C138.355 234.408 139.112 232.467 140.541 231.144C141.992 229.821 143.827 229.16 146.045 229.16C148.477 229.16 150.344 229.811 151.645 231.112C152.947 232.392 153.597 234.088 153.597 236.2C153.597 237.864 153.149 239.453 152.253 240.968C151.357 242.483 150.333 243.805 149.181 244.936C148.029 246.045 146.525 247.389 144.669 248.968H154.109V252.68H138.301V249.352L139.965 247.944ZM161.38 248.296L157.636 257.288H154.756L156.836 248.296H161.38ZM164.545 247.944C166.593 246.237 168.225 244.819 169.441 243.688C170.657 242.536 171.671 241.341 172.481 240.104C173.292 238.867 173.697 237.651 173.697 236.456C173.697 235.368 173.441 234.515 172.929 233.896C172.417 233.277 171.628 232.968 170.561 232.968C169.495 232.968 168.673 233.331 168.097 234.056C167.521 234.76 167.223 235.731 167.201 236.968H162.849C162.935 234.408 163.692 232.467 165.121 231.144C166.572 229.821 168.407 229.16 170.625 229.16C173.057 229.16 174.924 229.811 176.225 231.112C177.527 232.392 178.177 234.088 178.177 236.2C178.177 237.864 177.729 239.453 176.833 240.968C175.937 242.483 174.913 243.805 173.761 244.936C172.609 246.045 171.105 247.389 169.249 248.968H178.689V252.68H162.881V249.352L164.545 247.944ZM180.008 233.8V229.672H187.72V253H183.112V233.8H180.008ZM191.186 241.032C191.186 237.341 191.847 234.451 193.17 232.36C194.514 230.269 196.733 229.224 199.826 229.224C202.919 229.224 205.127 230.269 206.45 232.36C207.794 234.451 208.466 237.341 208.466 241.032C208.466 244.744 207.794 247.656 206.45 249.768C205.127 251.88 202.919 252.936 199.826 252.936C196.733 252.936 194.514 251.88 193.17 249.768C191.847 247.656 191.186 244.744 191.186 241.032ZM204.05 241.032C204.05 239.453 203.943 238.131 203.73 237.064C203.538 235.976 203.133 235.091 202.514 234.408C201.917 233.725 201.021 233.384 199.826 233.384C198.631 233.384 197.725 233.725 197.106 234.408C196.509 235.091 196.103 235.976 195.89 237.064C195.698 238.131 195.602 239.453 195.602 241.032C195.602 242.653 195.698 244.019 195.89 245.128C196.082 246.216 196.487 247.101 197.106 247.784C197.725 248.445 198.631 248.776 199.826 248.776C201.021 248.776 201.927 248.445 202.546 247.784C203.165 247.101 203.57 246.216 203.762 245.128C203.954 244.019 204.05 242.653 204.05 241.032Z" fill="#080808"/>
<path d="M43 39C43 38.4477 43.4477 38 44 38H56C57.1046 38 58 38.8954 58 40V54C58 55.1046 57.1046 56 56 56H44C43.4477 56 43 55.5523 43 55V39Z" stroke="white" stroke-width="2" stroke-linejoin="round"/>
<path d="M44.5 42.5H41" stroke="white" stroke-width="2" stroke-linecap="round"/>
<path d="M44.5 47H41" stroke="white" stroke-width="2" stroke-linecap="round"/>
<path d="M44.5 51.5H41" stroke="white" stroke-width="2" stroke-linecap="round"/>
<path d="M49 42.5H52M49 47H54M49 51.5H54" stroke="white" stroke-width="2" stroke-linecap="round"/>
<path d="M77.44 55.168C76.272 55.168 75.216 54.968 74.272 54.568C73.344 54.168 72.608 53.592 72.064 52.84C71.52 52.088 71.24 51.2 71.224 50.176H74.824C74.872 50.864 75.112 51.408 75.544 51.808C75.992 52.208 76.6 52.408 77.368 52.408C78.152 52.408 78.768 52.224 79.216 51.856C79.664 51.472 79.888 50.976 79.888 50.368C79.888 49.872 79.736 49.464 79.432 49.144C79.128 48.824 78.744 48.576 78.28 48.4C77.832 48.208 77.208 48 76.408 47.776C75.32 47.456 74.432 47.144 73.744 46.84C73.072 46.52 72.488 46.048 71.992 45.424C71.512 44.784 71.272 43.936 71.272 42.88C71.272 41.888 71.52 41.024 72.016 40.288C72.512 39.552 73.208 38.992 74.104 38.608C75 38.208 76.024 38.008 77.176 38.008C78.904 38.008 80.304 38.432 81.376 39.28C82.464 40.112 83.064 41.28 83.176 42.784H79.48C79.448 42.208 79.2 41.736 78.736 41.368C78.288 40.984 77.688 40.792 76.936 40.792C76.28 40.792 75.752 40.96 75.352 41.296C74.968 41.632 74.776 42.12 74.776 42.76C74.776 43.208 74.92 43.584 75.208 43.888C75.512 44.176 75.88 44.416 76.312 44.608C76.76 44.784 77.384 44.992 78.184 45.232C79.272 45.552 80.16 45.872 80.848 46.192C81.536 46.512 82.128 46.992 82.624 47.632C83.12 48.272 83.368 49.112 83.368 50.152C83.368 51.048 83.136 51.88 82.672 52.648C82.208 53.416 81.528 54.032 80.632 54.496C79.736 54.944 78.672 55.168 77.44 55.168ZM85.177 48.304C85.177 46.96 85.441 45.768 85.969 44.728C86.513 43.688 87.241 42.888 88.153 42.328C89.081 41.768 90.113 41.488 91.249 41.488C92.241 41.488 93.105 41.688 93.841 42.088C94.593 42.488 95.193 42.992 95.641 43.6V41.704H99.025V55H95.641V53.056C95.209 53.68 94.609 54.2 93.841 54.616C93.089 55.016 92.217 55.216 91.225 55.216C90.105 55.216 89.081 54.928 88.153 54.352C87.241 53.776 86.513 52.968 85.969 51.928C85.441 50.872 85.177 49.664 85.177 48.304ZM95.641 48.352C95.641 47.536 95.481 46.84 95.161 46.264C94.841 45.672 94.409 45.224 93.865 44.92C93.321 44.6 92.737 44.44 92.113 44.44C91.489 44.44 90.913 44.592 90.385 44.896C89.857 45.2 89.425 45.648 89.089 46.24C88.769 46.816 88.609 47.504 88.609 48.304C88.609 49.104 88.769 49.808 89.089 50.416C89.425 51.008 89.857 51.464 90.385 51.784C90.929 52.104 91.505 52.264 92.113 52.264C92.737 52.264 93.321 52.112 93.865 51.808C94.409 51.488 94.841 51.04 95.161 50.464C95.481 49.872 95.641 49.168 95.641 48.352ZM105.427 37.24V55H102.067V37.24H105.427ZM120.866 48.064C120.866 48.544 120.834 48.976 120.77 49.36H111.05C111.13 50.32 111.466 51.072 112.058 51.616C112.65 52.16 113.378 52.432 114.242 52.432C115.49 52.432 116.378 51.896 116.906 50.824H120.53C120.146 52.104 119.41 53.16 118.322 53.992C117.234 54.808 115.898 55.216 114.314 55.216C113.034 55.216 111.882 54.936 110.858 54.376C109.85 53.8 109.058 52.992 108.482 51.952C107.922 50.912 107.642 49.712 107.642 48.352C107.642 46.976 107.922 45.768 108.482 44.728C109.042 43.688 109.826 42.888 110.834 42.328C111.842 41.768 113.002 41.488 114.314 41.488C115.578 41.488 116.706 41.76 117.698 42.304C118.706 42.848 119.482 43.624 120.026 44.632C120.586 45.624 120.866 46.768 120.866 48.064ZM117.386 47.104C117.37 46.24 117.058 45.552 116.45 45.04C115.842 44.512 115.098 44.248 114.218 44.248C113.386 44.248 112.682 44.504 112.106 45.016C111.546 45.512 111.202 46.208 111.074 47.104H117.386ZM128.167 55.216C127.079 55.216 126.103 55.024 125.239 54.64C124.375 54.24 123.687 53.704 123.175 53.032C122.679 52.36 122.407 51.616 122.359 50.8H125.743C125.807 51.312 126.055 51.736 126.487 52.072C126.935 52.408 127.487 52.576 128.143 52.576C128.783 52.576 129.279 52.448 129.631 52.192C129.999 51.936 130.183 51.608 130.183 51.208C130.183 50.776 129.959 50.456 129.511 50.248C129.079 50.024 128.383 49.784 127.423 49.528C126.431 49.288 125.615 49.04 124.975 48.784C124.351 48.528 123.807 48.136 123.343 47.608C122.895 47.08 122.671 46.368 122.671 45.472C122.671 44.736 122.879 44.064 123.295 43.456C123.727 42.848 124.335 42.368 125.119 42.016C125.919 41.664 126.855 41.488 127.927 41.488C129.511 41.488 130.775 41.888 131.719 42.688C132.663 43.472 133.183 44.536 133.279 45.88H130.063C130.015 45.352 129.791 44.936 129.391 44.632C129.007 44.312 128.487 44.152 127.831 44.152C127.223 44.152 126.751 44.264 126.415 44.488C126.095 44.712 125.935 45.024 125.935 45.424C125.935 45.872 126.159 46.216 126.607 46.456C127.055 46.68 127.751 46.912 128.695 47.152C129.655 47.392 130.447 47.64 131.071 47.896C131.695 48.152 132.231 48.552 132.679 49.096C133.143 49.624 133.383 50.328 133.399 51.208C133.399 51.976 133.183 52.664 132.751 53.272C132.335 53.88 131.727 54.36 130.927 54.712C130.143 55.048 129.223 55.216 128.167 55.216ZM150.036 55L146.34 48.472H144.756V55H141.396V38.248H147.684C148.98 38.248 150.084 38.48 150.996 38.944C151.908 39.392 152.588 40.008 153.036 40.792C153.5 41.56 153.732 42.424 153.732 43.384C153.732 44.488 153.412 45.488 152.772 46.384C152.132 47.264 151.18 47.872 149.916 48.208L153.924 55H150.036ZM144.756 45.952H147.564C148.476 45.952 149.156 45.736 149.604 45.304C150.052 44.856 150.276 44.24 150.276 43.456C150.276 42.688 150.052 42.096 149.604 41.68C149.156 41.248 148.476 41.032 147.564 41.032H144.756V45.952ZM168.891 48.064C168.891 48.544 168.859 48.976 168.795 49.36H159.075C159.155 50.32 159.491 51.072 160.083 51.616C160.675 52.16 161.403 52.432 162.267 52.432C163.515 52.432 164.403 51.896 164.931 50.824H168.555C168.171 52.104 167.435 53.16 166.347 53.992C165.259 54.808 163.923 55.216 162.339 55.216C161.059 55.216 159.907 54.936 158.883 54.376C157.875 53.8 157.083 52.992 156.507 51.952C155.947 50.912 155.667 49.712 155.667 48.352C155.667 46.976 155.947 45.768 156.507 44.728C157.067 43.688 157.851 42.888 158.859 42.328C159.867 41.768 161.027 41.488 162.339 41.488C163.603 41.488 164.731 41.76 165.723 42.304C166.731 42.848 167.507 43.624 168.051 44.632C168.611 45.624 168.891 46.768 168.891 48.064ZM165.411 47.104C165.395 46.24 165.083 45.552 164.475 45.04C163.867 44.512 163.123 44.248 162.243 44.248C161.411 44.248 160.707 44.504 160.131 45.016C159.571 45.512 159.227 46.208 159.099 47.104H165.411ZM174.463 43.624C174.895 43.016 175.487 42.512 176.239 42.112C177.007 41.696 177.879 41.488 178.855 41.488C179.991 41.488 181.015 41.768 181.927 42.328C182.855 42.888 183.583 43.688 184.111 44.728C184.655 45.752 184.927 46.944 184.927 48.304C184.927 49.664 184.655 50.872 184.111 51.928C183.583 52.968 182.855 53.776 181.927 54.352C181.015 54.928 179.991 55.216 178.855 55.216C177.879 55.216 177.015 55.016 176.263 54.616C175.527 54.216 174.927 53.712 174.463 53.104V61.336H171.103V41.704H174.463V43.624ZM181.495 48.304C181.495 47.504 181.327 46.816 180.991 46.24C180.671 45.648 180.239 45.2 179.695 44.896C179.167 44.592 178.591 44.44 177.967 44.44C177.359 44.44 176.783 44.6 176.239 44.92C175.711 45.224 175.279 45.672 174.943 46.264C174.623 46.856 174.463 47.552 174.463 48.352C174.463 49.152 174.623 49.848 174.943 50.44C175.279 51.032 175.711 51.488 176.239 51.808C176.783 52.112 177.359 52.264 177.967 52.264C178.591 52.264 179.167 52.104 179.695 51.784C180.239 51.464 180.671 51.008 180.991 50.416C181.327 49.824 181.495 49.12 181.495 48.304ZM193.033 55.216C191.753 55.216 190.601 54.936 189.577 54.376C188.553 53.8 187.745 52.992 187.153 51.952C186.577 50.912 186.289 49.712 186.289 48.352C186.289 46.992 186.585 45.792 187.177 44.752C187.785 43.712 188.609 42.912 189.649 42.352C190.689 41.776 191.849 41.488 193.129 41.488C194.409 41.488 195.569 41.776 196.609 42.352C197.649 42.912 198.465 43.712 199.057 44.752C199.665 45.792 199.969 46.992 199.969 48.352C199.969 49.712 199.657 50.912 199.033 51.952C198.425 52.992 197.593 53.8 196.537 54.376C195.497 54.936 194.329 55.216 193.033 55.216ZM193.033 52.288C193.641 52.288 194.209 52.144 194.737 51.856C195.281 51.552 195.713 51.104 196.033 50.512C196.353 49.92 196.513 49.2 196.513 48.352C196.513 47.088 196.177 46.12 195.505 45.448C194.849 44.76 194.041 44.416 193.081 44.416C192.121 44.416 191.313 44.76 190.657 45.448C190.017 46.12 189.697 47.088 189.697 48.352C189.697 49.616 190.009 50.592 190.633 51.28C191.273 51.952 192.073 52.288 193.033 52.288ZM205.554 43.768C205.986 43.064 206.546 42.512 207.234 42.112C207.938 41.712 208.738 41.512 209.634 41.512V45.04H208.746C207.69 45.04 206.89 45.288 206.346 45.784C205.818 46.28 205.554 47.144 205.554 48.376V55H202.194V41.704H205.554V43.768ZM215.569 44.464V50.896C215.569 51.344 215.673 51.672 215.881 51.88C216.105 52.072 216.473 52.168 216.985 52.168H218.545V55H216.433C213.601 55 212.185 53.624 212.185 50.872V44.464H210.601V41.704H212.185V38.416H215.569V41.704H218.545V44.464H215.569ZM226.872 51.208C228.408 49.928 229.632 48.864 230.544 48.016C231.456 47.152 232.216 46.256 232.824 45.328C233.432 44.4 233.736 43.488 233.736 42.592C233.736 41.776 233.544 41.136 233.16 40.672C232.776 40.208 232.184 39.976 231.384 39.976C230.584 39.976 229.968 40.248 229.536 40.792C229.104 41.32 228.88 42.048 228.864 42.976H225.6C225.664 41.056 226.232 39.6 227.304 38.608C228.392 37.616 229.768 37.12 231.432 37.12C233.256 37.12 234.656 37.608 235.632 38.584C236.608 39.544 237.096 40.816 237.096 42.4C237.096 43.648 236.76 44.84 236.088 45.976C235.416 47.112 234.648 48.104 233.784 48.952C232.92 49.784 231.792 50.792 230.4 51.976H237.48V54.76H225.624V52.264L226.872 51.208ZM239.357 46.024C239.357 43.256 239.853 41.088 240.845 39.52C241.853 37.952 243.517 37.168 245.837 37.168C248.157 37.168 249.813 37.952 250.805 39.52C251.813 41.088 252.317 43.256 252.317 46.024C252.317 48.808 251.813 50.992 250.805 52.576C249.813 54.16 248.157 54.952 245.837 54.952C243.517 54.952 241.853 54.16 240.845 52.576C239.853 50.992 239.357 48.808 239.357 46.024ZM249.005 46.024C249.005 44.84 248.925 43.848 248.765 43.048C248.621 42.232 248.317 41.568 247.853 41.056C247.405 40.544 246.733 40.288 245.837 40.288C244.941 40.288 244.261 40.544 243.797 41.056C243.349 41.568 243.045 42.232 242.885 43.048C242.741 43.848 242.669 44.84 242.669 46.024C242.669 47.24 242.741 48.264 242.885 49.096C243.029 49.912 243.333 50.576 243.797 51.088C244.261 51.584 244.941 51.832 245.837 51.832C246.733 51.832 247.413 51.584 247.877 51.088C248.341 50.576 248.645 49.912 248.789 49.096C248.933 48.264 249.005 47.24 249.005 46.024ZM255.689 51.208C257.225 49.928 258.449 48.864 259.361 48.016C260.273 47.152 261.033 46.256 261.641 45.328C262.249 44.4 262.553 43.488 262.553 42.592C262.553 41.776 262.361 41.136 261.977 40.672C261.593 40.208 261.001 39.976 260.201 39.976C259.401 39.976 258.785 40.248 258.353 40.792C257.921 41.32 257.697 42.048 257.681 42.976H254.417C254.481 41.056 255.049 39.6 256.121 38.608C257.209 37.616 258.585 37.12 260.249 37.12C262.073 37.12 263.473 37.608 264.449 38.584C265.425 39.544 265.913 40.816 265.913 42.4C265.913 43.648 265.577 44.84 264.905 45.976C264.233 47.112 263.465 48.104 262.601 48.952C261.737 49.784 260.609 50.792 259.217 51.976H266.297V54.76H254.441V52.264L255.689 51.208ZM268.03 51.592V48.952L275.878 37.72H279.79V48.664H281.902V51.592H279.79V55H276.43V51.592H268.03ZM276.646 41.32L271.726 48.664H276.646V41.32Z" fill="white"/>
<circle cx="297" cy="47" r="8" fill="#AFAFAF"/>
<path fill-rule="evenodd" clip-rule="evenodd" d="M298.305 44.2422C298.43 44.0234 298.5 43.7695 298.5 43.5C298.5 42.6719 297.828 42 297 42C296.172 42 295.5 42.6719 295.5 43.5C295.5 44.3281 296.172 45 297 45C297.559 45 298.047 44.6953 298.305 44.2422ZM296 46H296.5H297.5C298.053 46 298.5 46.4473 298.5 47V48V52C298.5 52.5527 298.053 53 297.5 53C296.947 53 296.5 52.5527 296.5 52V48.75C296.5 48.3359 296.164 48 295.75 48C295.336 48 295 47.6641 295 47.25V47C295 46.6484 295.182 46.3379 295.455 46.1602C295.611 46.0586 295.799 46 296 46Z" fill="white"/>
</svg>
